# xmcd CD database file
#
# Track frame offsets:
#	150
#	47552
#	84895
#	115502
#	154422
#
# Disc length: 2454 seconds
#
# Revision: 2
# Processed by: cddbd v1.5.1PL2 Copyright (c) Steve Scherf et al.
# Submitted via: CDex 1.51
#
DISCID=2e099405
DTITLE=Coleman Hawkins - Night Hawk
DYEAR=1960
DGENRE=Jazz
TTITLE0=Night Hawk
TTITLE1=There Is No Greater Love
TTITLE2=In A Mellow Tone
TTITLE3=Don't Take Your Love From Me
TTITLE4=Pedalin'
EXTD=YEAR: 1960
EXTT0=
EXTT1=
EXTT2=
EXTT3=
EXTT4=
PLAYORDER=
